Coordinates
version=1
nRows=14
nColumns=40
inDegrees=yes

Units are S.I. units (second, meters, Newtons, ...)
Angles are in degrees.

endheader
time	pelvis_tilt	pelvis_list	pelvis_rotation	pelvis_tx	pelvis_ty	pelvis_tz	hip_flexion_r	hip_adduction_r	hip_rotation_r	knee_angle_r	knee_angle_r_beta	ankle_angle_r	subtalar_angle_r	mtp_angle_r	hip_flexion_l	hip_adduction_l	hip_rotation_l	knee_angle_l	knee_angle_l_beta	ankle_angle_l	subtalar_angle_l	mtp_angle_l	lumbar_extension	lumbar_bending	lumbar_rotation	arm_flex_r	arm_add_r	arm_rot_r	elbow_flex_r	pro_sup_r	wrist_flex_r	wrist_dev_r	arm_flex_l	arm_add_l	arm_rot_l	elbow_flex_l	pro_sup_l	wrist_flex_l	wrist_dev_l
     57.89514286	     -3.08292204	     -4.96862828	     -0.66961448	      0.94687128	      0.91830593	      0.39197427	     26.77166304	     -5.57451121	     -4.24197105	     61.80303876	     61.80303876	      6.16241815	    -16.72438216	      3.29262778	     16.89596210	     -2.88821638	     -4.30976430	     31.52508177	     31.52508177	     19.96925773	    -15.61674360	      5.54548867	    -10.65644759	      5.53030085	      1.16222129	      4.64842764	    -13.06292590	     -8.58292784	     26.02581647	     46.48906725	      0.00000000	      0.00000000	     23.21560333	    -14.64748648	      9.95192641	     34.66061123	     45.62510961	      0.00000000	      0.00000000
     57.91528571	     -3.01974620	     -5.12194565	     -1.33643442	      0.94586782	      0.91965186	      0.39211855	     27.33115603	     -5.27496532	     -4.10048805	     59.28728202	     59.28728202	      6.14579552	    -16.40026079	      1.54672367	     15.89302228	     -3.18072359	     -5.06657911	     30.64171617	     30.64171617	     19.98301461	    -15.24703057	      5.01929552	    -10.86657164	      5.83099712	      1.39098233	      1.96417238	    -13.13099297	     -9.29985029	     24.34978706	     46.61453852	      0.00000000	      0.00000000	     23.90095122	    -14.63703275	      6.53548353	     38.64780779	     46.09172523	      0.00000000	      0.00000000
     57.93542857	     -3.07465506	     -5.23858554	     -1.99432715	      0.94475576	      0.92112278	      0.39255367	     27.85931513	     -4.98473270	     -4.01247811	     56.28768229	     56.28768229	      6.63337923	    -15.46490342	      1.28620823	     14.99380092	     -3.39334183	     -5.72048847	     29.69666319	     29.69666319	     20.05056530	    -15.05161314	      5.10336807	    -10.86893103	      6.10840810	      1.28689576	     -0.52295787	    -13.22140895	     -9.38504942	     23.30587900	     46.64693022	      0.00000000	      0.00000000	     25.33686527	    -15.11380016	      5.92003800	     39.83121869	     46.18725663	      0.00000000	      0.00000000
     57.95557143	     -3.17314628	     -5.32632327	     -2.69835614	      0.94369969	      0.92266505	      0.39340789	     28.22742404	     -4.67105233	     -3.94054860	     52.77710609	     52.77710609	      6.95531337	    -14.18825983	      0.51122307	     14.05658643	     -3.60035888	     -6.44893517	     28.61523973	     28.61523973	     20.01109560	    -14.67900905	      5.01735785	    -10.83619633	      6.28706039	      1.42646790	     -3.09798585	    -13.29480981	     -9.63659481	     22.62750810	     46.67830505	      0.00000000	      0.00000000	     26.61364343	    -15.47101534	      4.86697072	     41.80131162	     46.33218259	      0.00000000	      0.00000000
     57.97571429	     -3.32250117	     -5.38045462	     -3.41681400	      0.94263426	      0.92428934	      0.39459852	     28.40036790	     -4.38712914	     -4.03719831	     48.72603447	     48.72603447	      6.89422145	    -12.55222847	     -0.81431016	     13.09487212	     -3.78091287	     -7.29074814	     27.37037771	     27.37037771	     19.82222628	    -14.29784251	      4.72738013	    -10.81790463	      6.43675685	      1.46055115	     -5.60066528	    -13.34391683	    -10.15298866	     22.63326543	     46.70430967	      0.00000000	      0.00000000	     27.49081014	    -15.93030615	      3.23646870	     44.48812950	     46.53352850	      0.00000000	      0.00000000
     57.99585714	     -3.57387609	     -5.51378627	     -4.11973266	      0.94159985	      0.92571291	      0.39611704	     28.38793440	     -3.94041192	     -4.25796972	     44.13662145	     44.13662145	      6.16103221	    -10.89255652	     -3.34855585	     12.23144320	     -4.03273197	     -8.02860810	     26.09718764	     26.09718764	     19.38468140	    -14.11063662	      3.90351104	    -10.70444193	      6.69394649	      0.97867089	     -7.93151559	    -13.36349661	    -11.28173175	     23.83905706	     46.73276950	      0.00000000	      0.00000000	     27.58679628	    -16.59508303	      0.27365158	     48.31068910	     46.85613144	      0.00000000	      0.00000000
     58.01600000	     -3.83204122	     -5.59859212	     -4.80998084	      0.94061861	      0.92707798	      0.39801785	     28.25954977	     -3.42626836	     -4.43959459	     39.47273857	     39.47273857	      6.07173238	     -8.65692806	     -3.09202681	     11.36594276	     -4.22484701	     -8.72473854	     24.83669841	     24.83669841	     19.29939974	    -13.76886265	      4.03965126	    -10.46463317	      6.86131671	      0.86178040	     -9.66254029	    -13.40132829	    -11.40397014	     23.37918104	     46.74689051	      0.00000000	      0.00000000	     28.82652449	    -17.29518848	     -0.23370600	     49.40529396	     46.92500744	      0.00000000	      0.00000000
     58.03614286	     -3.90958043	     -5.57593986	     -5.50904016	      0.93982268	      0.92830814	      0.40016774	     27.77229423	     -3.08896613	     -4.93080551	     34.71385447	     34.71385447	      5.87117362	     -5.58210716	     -2.94083261	     10.30269454	     -4.29981683	     -9.54356110	     23.59405337	     23.59405337	     19.19938051	    -13.35884639	      3.96170690	    -10.51845051	      6.86844331	      1.10246990	    -11.47781201	    -13.38277756	    -11.65220701	     23.35295859	     46.75037140	      0.00000000	      0.00000000	     30.07686291	    -17.81747695	     -1.02572967	     51.39954541	     47.02869432	      0.00000000	      0.00000000
     58.05628571	     -4.01422077	     -5.51810927	     -6.15649022	      0.93915542	      0.92904544	      0.40260292	     27.20431667	     -2.72479402	     -5.54606039	     30.04318120	     30.04318120	      5.47143507	     -2.38602355	     -2.51448360	      9.34840009	     -4.33860886	    -10.29081843	     22.50427204	     22.50427204	     19.09624404	    -13.00986259	      3.68317886	    -10.51706115	      6.82342641	      1.25510973	    -13.16860757	    -13.31528574	    -12.00014703	     23.81509280	     46.73976062	      0.00000000	      0.00000000	     31.12543573	    -18.39165948	     -1.96982548	     53.74584219	     47.14640306	      0.00000000	      0.00000000
     58.07642857	     -4.20869794	     -5.42838561	     -6.73949323	      0.93861448	      0.92921638	      0.40531160	     26.64687684	     -2.29969942	     -6.19591184	     25.57246399	     25.57246399	      4.87890669	      0.63891982	     -1.65713311	      8.57767388	     -4.35505565	    -10.93753261	     21.56832067	     21.56832067	     19.02489362	    -12.76353909	      3.36680131	    -10.36273375	      6.75783701	      1.32292248	    -14.57834318	    -13.17181658	    -12.30223820	     24.35729921	     46.72305210	      0.00000000	      0.00000000	     32.10374461	    -18.99964201	     -2.81097066	     55.86935395	     47.25291322	      0.00000000	      0.00000000
     58.09657143	     -4.29654895	     -5.23226754	     -7.28707018	      0.93832782	      0.92899033	      0.40818953	     26.02859903	     -1.99110100	     -6.98837974	     21.65279662	     21.65279662	      4.35676763	      3.76752994	     -0.51661069	      7.76338404	     -4.25384134	    -11.59060731	     20.77655413	     20.77655413	     18.97353562	    -12.51298366	      2.83057194	    -10.32740698	      6.55315935	      1.43692785	    -15.80984796	    -12.93718568	    -12.61425781	     25.23214292	     46.69192069	      0.00000000	      0.00000000	     33.04222520	    -19.56084008	     -3.73759315	     58.30398654	     47.36892087	      0.00000000	      0.00000000
     58.11671429	     -4.49248371	     -4.95505268	     -7.74608757	      0.93822229	      0.92814651	      0.41131301	     25.62795982	     -1.68459692	     -7.50998831	     18.39513624	     18.39513624	      3.75690112	      6.10443511	      0.64846009	      7.20509312	     -4.09672815	    -12.09311346	     20.22928138	     20.22928138	     19.05781202	    -12.37660708	      2.41312343	    -10.02917157	      6.26041133	      1.48439120	    -16.62626196	    -12.61297257	    -12.75331735	     25.76733373	     46.66689492	      0.00000000	      0.00000000	     34.06437162	    -20.03868701	     -4.34572913	     60.03726146	     47.45002445	      0.00000000	      0.00000000
     58.13685714	     -4.45749919	     -4.74710699	     -8.16771298	      0.93859648	      0.92725242	      0.41445908	     25.23994429	     -1.50940907	     -8.60686665	     16.32137473	     16.32137473	      4.09972687	      9.07658352	      3.54583072	      6.28844111	     -3.95621928	    -12.61824806	     19.49124158	     19.49124158	     18.50754622	    -12.49937739	      0.31981231	    -10.16362053	      6.11687279	      1.16537924	    -17.91945926	    -12.54715511	    -13.06959562	     28.86882534	     46.51864211	      0.00000000	      0.00000000	     33.87848107	    -20.79194189	     -6.52735755	     64.52278254	     47.67556992	      0.00000000	      0.00000000
     58.15700000	     -4.49957164	     -4.55317288	     -8.51742855	      0.93922369	      0.92615456	      0.41788644	     24.81808940	     -1.18261532	     -9.08647100	     14.50340607	     14.50340607	      3.64803704	     10.57508196	      4.15245859	      5.59355080	     -3.86862375	    -12.98888163	     19.09672731	     19.09672731	     18.76460673	    -12.39490467	      0.06527879	    -10.00781880	      5.97967534	      1.46059219	    -18.27307732	    -12.30541334	    -12.91653823	     28.88083413	     46.49937780	      0.00000000	      0.00000000	     35.08447685	    -21.05697160	     -6.84050293	     65.68352534	     47.72441731	      0.00000000	      0.00000000
